<svg width="187" height="86" viewBox="0 0 187 86" fill="none" xmlns="http://www.w3.org/2000/svg">
    <g clip-path="url(#clip0_108_4028)">
        <path d="M70.8565 72.9167C69.6757 72.5573 69.1623 72.3305 69.1623 71.6588C69.1623 71.0556 69.9666 70.8416 70.6554 70.8416C71.2587 70.8416 71.9047 71.0213 72.3454 71.308C72.4481 71.3764 72.5764 71.3978 72.6962 71.3636C72.816 71.3337 72.9144 71.2481 72.97 71.1369L73.1711 70.7347C73.2695 70.5379 73.2053 70.2983 73.0214 70.1742C72.3882 69.7592 71.4897 69.5025 70.6768 69.5025C68.9697 69.5025 67.8188 70.3796 67.8188 71.6845C67.8188 73.383 69.2521 73.8109 70.403 74.1574C71.6052 74.5168 72.1357 74.7521 72.1272 75.4666C72.1272 76.1854 71.2801 76.4421 70.4886 76.4421C69.6971 76.4421 68.9013 76.0356 68.4007 75.5736C68.3023 75.4794 68.1697 75.4281 68.037 75.4452C67.9044 75.4623 67.7846 75.5393 67.7119 75.6548L67.4808 76.0442C67.3782 76.2153 67.4081 76.4378 67.5493 76.5747C68.2937 77.3063 69.4147 77.7641 70.4757 77.7641C72.2684 77.7641 73.4706 76.8357 73.4706 75.458C73.4834 73.7082 72.0288 73.2675 70.8608 72.9124" fill="#222221"/>
        <path d="M78.7459 69.7806C78.6732 69.6266 78.5192 69.5282 78.348 69.5282H77.8731C77.702 69.5282 77.548 69.6266 77.4752 69.7849L74.1381 77.148C74.0782 77.2849 74.0867 77.4389 74.168 77.563C74.2493 77.6871 74.3862 77.7641 74.5317 77.7641H75.0151C75.1863 77.7641 75.3403 77.6657 75.413 77.5074L76.2473 75.6677H79.9952L80.838 77.5117C80.9108 77.6657 81.0648 77.7641 81.2317 77.7641H81.7151C81.8649 77.7641 82.0018 77.6871 82.0831 77.563C82.1643 77.4389 82.1729 77.2806 82.113 77.148L78.7416 69.7849L78.7459 69.7806ZM76.8335 74.3499L78.1084 71.5219L79.4005 74.3499H76.8335Z" fill="#222221"/>
        <path d="M84.3035 69.5282H83.8628C83.6232 69.5282 83.4264 69.725 83.4264 69.9646V77.3277C83.4264 77.5673 83.6232 77.7641 83.8628 77.7641H84.3035C84.543 77.7641 84.7399 77.5716 84.7399 77.3277V69.9646C84.7399 69.725 84.543 69.5282 84.3035 69.5282Z" fill="#222221"/>
        <path d="M93.4849 69.5282H93.0528C92.8132 69.5282 92.6164 69.725 92.6164 69.9646V75.3254L88.4835 69.7036C88.4022 69.5924 88.2696 69.5282 88.1327 69.5282H87.615C87.3754 69.5282 87.1786 69.725 87.1786 69.9646V77.3277C87.1786 77.5673 87.3711 77.7641 87.615 77.7641H88.0557C88.2953 77.7641 88.4921 77.5716 88.4921 77.3277V71.9669L92.6122 77.5844C92.6934 77.6956 92.8261 77.7598 92.963 77.7598H93.4807C93.7203 77.7598 93.9171 77.5673 93.9171 77.3234V69.9603C93.9171 69.7207 93.7203 69.5239 93.4807 69.5239" fill="#222221"/>
        <path d="M101.079 69.5282H95.6669C95.4273 69.5282 95.2305 69.725 95.2305 69.9646V70.3967C95.2305 70.6363 95.4273 70.8331 95.6669 70.8331H97.7162V77.3277C97.7162 77.5673 97.913 77.7641 98.1526 77.7641H98.5933C98.8329 77.7641 99.0297 77.5716 99.0297 77.3277V70.8331H101.079C101.319 70.8331 101.515 70.6363 101.515 70.3967V69.9646C101.515 69.725 101.319 69.5282 101.079 69.5282Z" fill="#222221"/>
        <path d="M104.318 73.5413H101.969C101.729 73.5413 101.533 73.7381 101.533 73.9777V74.3371C101.533 74.5767 101.729 74.7735 101.969 74.7735H104.318C104.557 74.7735 104.754 74.581 104.754 74.3371V73.9777C104.754 73.7381 104.562 73.5413 104.318 73.5413Z" fill="#222221"/>
        <path d="M113.465 73.2761H113.063C113.063 73.2761 113.059 73.2761 113.054 73.2761H111.749C111.51 73.2761 111.313 73.4729 111.313 73.7125V74.1531C111.313 74.3927 111.506 74.5895 111.749 74.5895H112.631V75.9329C112.117 76.2838 111.501 76.4763 110.877 76.4763C109.251 76.4763 107.929 75.2013 107.929 73.6354C107.929 72.0696 109.251 70.8074 110.877 70.8074C111.63 70.8074 112.374 71.0855 112.913 71.569C113.003 71.6503 113.119 71.6888 113.238 71.6802C113.358 71.6717 113.469 71.6118 113.542 71.5176L113.807 71.1925C113.953 71.0085 113.931 70.7433 113.756 70.5892C112.964 69.8961 111.942 69.5111 110.877 69.5111C108.528 69.5111 106.62 71.3593 106.62 73.6312C106.62 75.903 108.519 77.7641 110.86 77.7641C111.916 77.7641 112.973 77.3748 113.756 76.6988C113.85 76.6175 113.906 76.4977 113.906 76.3693V73.7039C113.906 73.4643 113.709 73.2675 113.469 73.2675" fill="#222221"/>
        <path d="M119.639 69.5196C117.298 69.5196 115.39 71.3679 115.39 73.6397C115.39 75.9115 117.294 77.7727 119.639 77.7727C121.983 77.7727 123.887 75.9201 123.887 73.6397C123.887 71.3593 121.979 69.5196 119.639 69.5196ZM119.639 76.4677C118.026 76.4677 116.712 75.1971 116.712 73.6397C116.712 72.0824 118.026 70.8203 119.639 70.8203C121.252 70.8203 122.565 72.0867 122.565 73.6397C122.565 75.1928 121.252 76.4677 119.639 76.4677Z" fill="#222221"/>
        <path d="M130.857 73.413C131.297 73.0322 131.546 72.4674 131.546 71.7872C131.546 70.3967 130.497 69.5282 128.816 69.5282H125.804C125.564 69.5282 125.368 69.725 125.368 69.9646V77.3277C125.368 77.5673 125.56 77.7641 125.804 77.7641H128.837C130.767 77.7641 131.918 76.8614 131.918 75.3511C131.918 74.4954 131.533 73.8151 130.861 73.4172M128.803 72.8653H126.677V70.8288H128.803C129.453 70.8288 130.232 71.0042 130.232 71.8385C130.232 72.5231 129.753 72.8653 128.803 72.8653ZM126.681 74.1702H128.807C129.479 74.1702 130.604 74.3157 130.604 75.2955C130.604 76.2752 129.629 76.4592 128.807 76.4592H126.681V74.1702Z" fill="#222221"/>
        <path d="M137.257 69.7806C137.184 69.6266 137.03 69.5282 136.859 69.5282H136.384C136.213 69.5282 136.059 69.6266 135.986 69.7849L132.649 77.148C132.589 77.2849 132.598 77.4389 132.679 77.563C132.761 77.6871 132.897 77.7641 133.047 77.7641H133.531C133.702 77.7641 133.856 77.6657 133.929 77.5074L134.763 75.6677H138.511L139.354 77.5117C139.422 77.6657 139.58 77.7641 139.747 77.7641H140.231C140.38 77.7641 140.517 77.6871 140.599 77.563C140.68 77.4389 140.688 77.2806 140.629 77.148L137.257 69.7849V69.7806ZM135.345 74.3499L136.62 71.5219L137.912 74.3499H135.345Z" fill="#222221"/>
        <path d="M142.811 69.5282H142.37C142.13 69.5282 141.933 69.725 141.933 69.9646V77.3277C141.933 77.5673 142.13 77.7641 142.37 77.7641H142.811C143.05 77.7641 143.247 77.5716 143.247 77.3277V69.9646C143.247 69.725 143.05 69.5282 142.811 69.5282Z" fill="#222221"/>
        <path d="M151.996 69.5282H151.564C151.325 69.5282 151.128 69.725 151.128 69.9646V75.3254L146.995 69.7036C146.914 69.5924 146.781 69.5282 146.644 69.5282H146.126C145.887 69.5282 145.69 69.725 145.69 69.9646V77.3277C145.69 77.5673 145.887 77.7641 146.126 77.7641H146.567C146.807 77.7641 147.003 77.5716 147.003 77.3277V71.9669L151.128 77.5844C151.209 77.6956 151.342 77.7598 151.479 77.7598H151.996C152.236 77.7598 152.433 77.5673 152.433 77.3234V69.9603C152.433 69.7207 152.24 69.5239 151.996 69.5239" fill="#222221"/>
        <path d="M152.433 61.3051L178.403 8.23591H34.2549L8.28503 61.3051H152.433Z" fill="#0070B7"/>
        <path d="M43.0042 31.4291L42.6747 32.088L36.5139 44.3669H32.4194L41.879 25.4564H45.922L47.1457 38.4414L53.9184 25.4564H57.6834L48.2281 44.3669H44.2535L43.0042 31.4291Z" fill="white"/>
        <path d="M55.0949 44.3669C54.2221 44.2771 53.8242 43.4129 54.1066 42.5315L61.7777 26.9582C62.6976 25.4094 64.4389 25.465 64.3191 25.4522L76.2387 25.4693H76.2644C77.2955 25.5762 77.5008 26.5346 77.2527 27.3047L69.5815 42.8781C68.8799 44.5466 67.1599 44.3584 67.2284 44.3584H55.0949V44.3669ZM65.3502 41.1196C65.0593 41.0854 66.5695 41.3207 67.0958 40.0672L72.1314 29.876C72.3111 29.3156 72.3325 28.6781 71.4426 28.5925H71.4255L71.4041 28.6011H66.1845C66.4754 28.6353 65.0678 28.5497 64.4047 29.6578L59.369 39.8532C59.2064 40.3666 59.5957 41.0854 60.0621 41.1325L65.3502 41.1239V41.1196Z" fill="white"/>
        <path d="M77.7233 44.3669H73.8171L83.0841 25.4564H95.5043C95.5043 25.4564 97.9516 25.5035 97.4767 27.1978C97.006 28.892 93.2924 36.0412 93.2924 36.0412C93.2924 36.0412 92.7276 37.4531 89.767 37.2177H88.4492L89.7199 44.3669H85.9549L84.7784 37.2648H81.2016L77.719 44.3669H77.7233ZM88.261 34.5352C90.0237 34.5737 90.6098 33.5939 90.6098 33.5939L92.4453 30.1113C93.1041 28.5112 91.457 28.6053 91.457 28.6053H85.3859L82.5322 34.5309H88.2567L88.261 34.5352Z" fill="white"/>
        <path d="M108.464 28.5626H114.44L115.583 25.4564H100.369L99.1751 28.5626H104.793L96.9033 44.3669H100.57L108.464 28.5626Z" fill="white"/>
        <path d="M109.97 44.3541C109.101 44.2685 108.699 43.4 108.981 42.5187L116.652 26.9453C117.572 25.3965 119.314 25.4522 119.194 25.4393L131.113 25.4607H131.139C132.17 25.5677 132.375 26.526 132.127 27.2962L124.46 42.8695C123.759 44.5381 122.039 44.3498 122.107 44.3498H109.974L109.97 44.3541ZM120.225 41.1025C119.934 41.0726 121.444 41.3079 121.97 40.05L127.01 29.8546C127.19 29.2984 127.211 28.661 126.317 28.5711H126.3L126.279 28.5797H121.059C121.35 28.6096 119.938 28.5241 119.284 29.6322L114.244 39.8276C114.081 40.341 114.47 41.064 114.937 41.1111L120.229 41.1025H120.225Z" fill="white"/>
        <path d="M138.519 31.4291L138.186 32.088L132.025 44.3669H127.93L137.386 25.4564H141.433L142.657 38.4414L149.429 25.4564H153.194L143.739 44.3669H139.764L138.519 31.4291Z" fill="white"/>
        <path d="M161.914 58.952C161.914 60.3981 160.686 61.626 159.24 61.626C157.712 61.626 156.561 60.4494 156.561 58.952C156.561 57.4546 157.763 56.2737 159.24 56.2737C160.716 56.2737 161.914 57.4374 161.914 58.952ZM157.113 58.9263C157.113 60.1029 158.059 61.1126 159.235 61.1126C160.412 61.1126 161.357 60.1542 161.357 58.9777C161.357 57.8011 160.412 56.7957 159.235 56.7957C158.059 56.7957 157.113 57.754 157.113 58.9306V58.9263ZM159.766 60.4409L158.884 59.0846H158.859V60.4409H158.38V57.4289H159.231C159.941 57.4289 160.228 57.7284 160.228 58.1776C160.228 58.6953 159.903 59.0076 159.415 59.0547C159.479 59.1317 159.595 59.3028 159.714 59.4825L160.373 60.4409H159.766ZM159.21 57.8139H158.859V58.768H159.077C159.582 58.768 159.736 58.4814 159.736 58.2375C159.736 57.938 159.595 57.8097 159.205 57.8097L159.21 57.8139Z" fill="#0070B7"/>
    </g>
    <defs>
        <clipPath id="clip0_108_4028">
            <rect width="186.589" height="86" fill="white" transform="translate(0.0490723)"/>
        </clipPath>
    </defs>
</svg>
