<svg width="36" height="37" viewBox="0 0 36 37" fill="none" xmlns="http://www.w3.org/2000/svg">
    <circle cx="18" cy="18.5" r="17.25" stroke="#C5C5C5" stroke-width="1.5"/>
    <path d="M11.2564 18.4353C10.9145 18.7476 10.9145 19.2549 11.2564 19.5672L14.7565 22.7657C15.0983 23.0781 15.6535 23.0781 15.9953 22.7657C16.3371 22.4534 16.3371 21.9461 15.9953 21.6338L13.9881 19.7996H24.125C24.609 19.7996 25 19.4423 25 19C25 18.5577 24.609 18.2004 24.125 18.2004H13.9881L15.9953 16.3662C16.3371 16.0539 16.3371 15.5466 15.9953 15.2343C15.6535 14.9219 15.0983 14.9219 14.7565 15.2343L11.2564 18.4328V18.4353Z" fill="#C5C5C5"/>
</svg>
