<svg width="13" height="13" viewBox="0 0 13 13" fill="none" xmlns="http://www.w3.org/2000/svg">
    <path d="M4.18673 0.625154C3.99123 0.15291 3.47582 -0.0984466 2.98327 0.0361178L0.74899 0.645466C0.307213 0.767336 0 1.16849 0 1.6255C0 7.90686 5.09313 13 11.3745 13C11.8315 13 12.2327 12.6928 12.3545 12.251L12.9639 10.0167C13.0984 9.52418 12.8471 9.00877 12.3748 8.81327L9.93745 7.79769C9.5236 7.62504 9.04374 7.74437 8.76192 8.09221L7.73618 9.34391C5.94876 8.49844 4.50156 7.05124 3.65609 5.26382L4.90779 4.24062C5.25563 3.95626 5.37496 3.47893 5.20231 3.06509L4.18673 0.627693V0.625154Z" fill="#919191"/>
</svg>
