<svg width="11" height="10" viewBox="0 0 11 10" fill="none" xmlns="http://www.w3.org/2000/svg">
    <path d="M6.34615 0.769231C6.34615 0.34375 5.96803 0 5.5 0C5.03197 0 4.65385 0.34375 4.65385 0.769231V4.23077H0.846154C0.378125 4.23077 0 4.57452 0 5C0 5.42548 0.378125 5.76923 0.846154 5.76923H4.65385V9.23077C4.65385 9.65625 5.03197 10 5.5 10C5.96803 10 6.34615 9.65625 6.34615 9.23077V5.76923H10.1538C10.6219 5.76923 11 5.42548 11 5C11 4.57452 10.6219 4.23077 10.1538 4.23077H6.34615V0.769231Z" fill="#8A8A8A"/>
</svg>
