<svg width="42" height="32" viewBox="0 0 42 32" fill="none" xmlns="http://www.w3.org/2000/svg">
    <path d="M18.2 31.93C18.9875 32.206 19.8333 31.6321 19.8333 30.8039V3.38552C19.8333 3.08039 19.7167 2.77525 19.4688 2.58636C18.0396 1.45301 14.7583 0 10.5 0C6.81771 0 3.37604 0.966253 1.31979 1.75088C0.495833 2.07054 0 2.88423 0 3.7633V30.6658C0 31.5304 0.933333 32.1334 1.75729 31.8646C4.05417 31.1017 7.69271 30.2227 10.5 30.2227C12.9719 30.2227 16.2604 31.2398 18.2 31.93ZM23.8 31.93C25.7396 31.2398 29.0281 30.2227 31.5 30.2227C34.3073 30.2227 37.9458 31.1017 40.2427 31.8646C41.0667 32.1406 42 31.5304 42 30.6658V3.7633C42 2.88423 41.5042 2.07054 40.6802 1.75815C38.624 0.966254 35.1823 0 31.5 0C27.2417 0 23.9604 1.45301 22.5312 2.58636C22.2906 2.77525 22.1667 3.08039 22.1667 3.38552V30.8039C22.1667 31.6321 23.0198 32.206 23.8 31.93Z" fill="#C5C5C5"/>
</svg>
