<svg width="46" height="44" viewBox="0 0 46 44" fill="none" xmlns="http://www.w3.org/2000/svg">
    <path d="M44.9459 8.92031L40.1015 1.12578C39.6704 0.429688 38.901 0 38.0809 0H7.91575C7.09567 0 6.32632 0.429688 5.89515 1.12578L1.04234 8.92031C-1.46015 12.9422 0.754894 18.5367 5.43016 19.1812C5.76834 19.2242 6.11497 19.25 6.45314 19.25C8.65973 19.25 10.6211 18.2703 11.9654 16.7578C13.3096 18.2703 15.2711 19.25 17.4776 19.25C19.6842 19.25 21.6456 18.2703 22.9899 16.7578C24.3341 18.2703 26.2956 19.25 28.5021 19.25C30.7172 19.25 32.6701 18.2703 34.0144 16.7578C35.3671 18.2703 37.3201 19.25 39.5266 19.25C39.8733 19.25 40.2114 19.2242 40.5496 19.1812C45.2418 18.5453 47.4653 12.9508 44.9544 8.92031H44.9459ZM40.8963 21.9055H40.8878C40.4397 21.9656 39.9832 22 39.5182 22C38.4698 22 37.4638 21.8367 36.5253 21.5445V33H9.47135V21.5359C8.52446 21.8367 7.50994 22 6.4616 22C5.9966 22 5.53161 21.9656 5.08353 21.9055H5.07508C4.72845 21.8539 4.39027 21.7938 4.06055 21.7078V33V38.5C4.06055 41.5336 6.48696 44 9.47135 44H36.5253C39.5097 44 41.9361 41.5336 41.9361 38.5V33V21.7078C41.598 21.7938 41.2598 21.8625 40.8963 21.9055Z" fill="white"/>
</svg>
